<svg width="44" height="17" viewBox="0 0 44 17" fill="none" xmlns="http://www.w3.org/2000/svg">
<path d="M21.4021 0L17.0223 13.1753H13.6943L10.7489 4.25374L7.70783 13.1753H4.39901L0 0H3.21319L6.23512 9.26035L9.39093 0H12.2599L15.32 9.33564L18.4376 0H21.4021Z" fill="#141517"/>
<path d="M26.3061 2.89856C27.8999 2.89856 29.124 3.275 29.9783 4.02788C30.8326 4.7682 31.2597 5.89124 31.2597 7.39699V13.1753H28.4673V11.9142C27.9063 12.8553 26.8607 13.3259 25.3306 13.3259C24.5401 13.3259 23.8515 13.1941 23.265 12.9306C22.6912 12.6671 22.2513 12.3032 21.9453 11.8389C21.6393 11.3747 21.4863 10.8477 21.4863 10.2579C21.4863 9.31682 21.8433 8.57649 22.5573 8.03693C23.2841 7.49737 24.3998 7.22759 25.9044 7.22759H28.276C28.276 6.58765 28.0784 6.09828 27.6831 5.75949C27.2879 5.40815 26.6949 5.23247 25.9044 5.23247C25.3561 5.23247 24.8142 5.32031 24.2787 5.49598C23.7559 5.6591 23.3096 5.88497 22.9399 6.17357L21.8688 4.12198C22.4298 3.733 23.0992 3.43185 23.877 3.21854C24.6676 3.00522 25.4773 2.89856 26.3061 2.89856ZM26.0765 11.3496C26.5866 11.3496 27.0392 11.2366 27.4345 11.0108C27.8298 10.7724 28.1103 10.4273 28.276 9.97558V8.94038H26.2295C25.0055 8.94038 24.3934 9.33564 24.3934 10.1262C24.3934 10.5026 24.5401 10.8037 24.8333 11.0296C25.1394 11.2429 25.5538 11.3496 26.0765 11.3496Z" fill="#141517"/>
<path d="M43.9867 3.04914L39.339 13.7964C38.8672 14.9634 38.2807 15.7853 37.5794 16.2621C36.8909 16.7389 36.0557 16.9773 35.0739 16.9773C34.5384 16.9773 34.0092 16.8957 33.4864 16.7326C32.9636 16.5695 32.5365 16.3436 32.205 16.055L33.2952 13.9658C33.5247 14.1666 33.7861 14.3234 34.0793 14.4364C34.3853 14.5493 34.685 14.6058 34.9783 14.6058C35.3863 14.6058 35.7178 14.5054 35.9728 14.3046C36.2278 14.1164 36.4573 13.7964 36.6614 13.3447L36.6996 13.2506L32.2432 3.04914H35.3225L38.2106 9.91912L41.1177 3.04914H43.9867Z" fill="#141517"/>
<path d="M44 3.04834L39.3523 13.7956C38.8805 14.9626 38.294 15.7845 37.5927 16.2613C36.9042 16.7381 36.069 16.9765 35.0872 16.9765C34.5516 16.9765 34.0225 16.8949 33.4997 16.7318C32.9769 16.5687 32.5498 16.3428 32.2183 16.0542L33.3084 13.965C33.538 14.1658 33.7994 14.3226 34.0926 14.4356C34.3986 14.5485 34.6983 14.605 34.9916 14.605C35.3996 14.605 35.7311 14.5046 35.9861 14.3038C36.2411 14.1156 36.4706 13.7956 36.6747 13.3439L36.7129 13.2498L38.2239 9.91832L41.131 3.04834H44Z" fill="#FE7865"/>
</svg>
